<?xml version="1.0" encoding="UTF-8"?>
<svg id="Layer_1" xmlns="http://www.w3.org/2000/svg" version="1.1" viewBox="0 0 24 12">
  <!-- Generator: Adobe Illustrator 29.8.2, SVG Export Plug-In . SVG Version: 2.1.1 Build 3)  -->
  <path d="M12,2.2C5.9,2.2.9,3.9.9,5.9s5,3.8,11.1,3.8,11.1-1.7,11.1-3.8-5-3.8-11.1-3.8ZM6.3,8.4c-.7,0-1.2-.4-1.3-1.1,0-.4,0-.7.3-1,.2-.3.5-.5.8-.5,0,0,.2,0,.3,0,0,0,0,.2,0,.2-.2.1-.5.3-.6.6-.1.2-.1.5,0,.7.3.4,1,.4,1.7-.2.2-.2.3-.3.5-.5.3-.3.4-.5.8-1,0,0,0,0,0,0,0,0,0,0,0,0-.3,0-.5,0-.7.3,0,0-.2,0-.2,0,0,0,0-.2,0-.2.4-.3.8-.3,1.2-.4,0,0,0,0,0,0,.2-.2.3-.4.5-.6.2-.2.4-.4.6-.6.2-.2.4-.3.6-.4,0,0,0,0,0,0-.9-.2-1.8-.4-2.7,0-.6.2-.9.7-.8,1,0,.2.4.3.7.1.2-.1.5-.3.6-.5,0-.1.3,0,.2.2-.3.6-.8,1.1-1.4,1.1-.5,0-.8-.4-.8-.8,0-.9,1-1.5,2.1-1.6,1.3-.1,2.5.2,3.8.4,1,.1,1.9.1,2.9-.1.1,0,.2,0,.2.2,0,.2-.1.3-.5.5-.4.2-.8.3-1.2.3-1,0-1.9-.4-2.9-.6,0,0,0,0,0,.1-.5.4-1,.8-1.3,1.3,0,0,0,0,0,0,.3,0,.5,0,.8,0,0,0,0,0,0,0,0-.2,0-.4.2-.6.2-.2.4-.2.5,0,.2.1.1.4,0,.5,0,.2-.2.3-.4.3,0,0,0,0,0,0,0,0,.2.2.2.2,0,0,0,0,0,.1,0,0,0,0,0,0,0,0,0,0,0,0-.1,0-.2-.1-.3-.2,0,0,0,0,0,0-.3,0-.7,0-1,0,0,0,0,0,0,0-.5.8-1,1.6-1.5,2.2-.6.6-1.1.8-1.6.8ZM19,4.6c0,.2-1.8,2.8-2,3.1,0,0,0,.2,0,.2,0,.1.3,0,.4,0,.4-.3.6-.6.9-.9,0,0,0,0,0,0,0,0,.1,0,.1.1,0,0,0,0,0,0,0,0,0,0,0,0-.3.3-.6.6-.9.9-.5.4-.9.5-1.2.2,0,0-.1-.2-.1-.3,0,0,0,0,0,0-.3.3-.8.6-1.2.4-.4-.2-.5-.6-.4-1,0,0,0,0,0,0,0,0-.2.1-.3.2-.1,0-.2,0-.4,0-.2,0-.4,0-.5-.3,0-.1,0-.2,0-.3,0,0,0,0,0,0-.3.5-.6.9-.9,1.4,0,0,0,0,0,0h-.6s0,0,0,0c.1-.2.7-1,1.1-1.7.1-.2,0-.3,0-.3,0,0-.2,0-.4.1-.4.3-.7.7-.9.9,0,.1-.2.3-.4.6-.4.4-.9.7-1.4.5-.3,0-.5-.3-.5-.6,0,0,0,0,0,0,0,.1-.2.2-.4.3,0,0,0,0,0,0,0,0-.1-.1-.2-.2,0,0,0,0,0,0,.2-.2.3-.3.4-.4,0,0,.1-.2.2-.3.1-.3.4-.9.9-1.2.2-.1.4-.2.7-.2.1,0,.2,0,.2,0,0,0,0,.1,0,.2,0,0,0,0,0,0-.3.1-.6.3-.9.6-.3.3-.3.7-.2,1,.1.2.3.2.5.1.3,0,.5-.4.7-.7.1-.3.2-.7,0-1.1,0,0,0-.1,0-.1,0,0,.2-.1.2-.1,0,0,.1,0,.2,0,.1.2.2.4.2.6,0,0,0,0,0,0,.2-.2.4-.4.6-.6.2-.1.4-.3.6-.3.3,0,.4.2.4.5,0,0,0,0,0,0,0,0,.1-.2.2-.3.2-.2.4-.2.6-.2.3,0,.5.3.4.5,0,.2-.1.3-.3.4-.1,0-.3,0-.4,0,0,0-.1-.2,0-.3,0,0,0,0,0,0-.3.3-.3.6-.1.8.2.2.5,0,.7,0,.4-.2.6-.6,1-.8.2-.2.5-.3.7-.4.2,0,.3,0,.5,0,.2,0,.3.2.3.4,0,0,0,0,0,0,.2-.2,1-1.5,1.1-1.6,0,0,0,0,0,0h.6s0,0,0,0ZM16.7,6.8s0,0,0,0c0,0,0,0,0,0,0,0,0,0,0,0,0,.2-.1.3-.2.4,0,.1-.2.2-.3.3-.2.1-.4.3-.6.2,0,0-.1-.2-.1-.3,0-.3.1-.6.4-.9.3-.4.6-.5.8-.4.2.1.1.4,0,.6h0ZM10.8,5c0-.1,0-.3.1-.3,0,0,.1,0,.2,0,0,0,0,.2,0,.2,0,0-.1.1-.2.2,0,0,0,0,0,0ZM12,1.4C5.3,1.4,0,3.4,0,5.9s5.4,4.5,12,4.5,12-2,12-4.5S18.6,1.4,12,1.4ZM12,10C5.6,10,.5,8.2.5,5.9S5.7,1.8,12,1.8s11.5,1.8,11.5,4.1-5.1,4.1-11.5,4.1Z"/>
</svg>